<svg width="124" height="124" viewBox="0 0 124 124" fill="none" xmlns="http://www.w3.org/2000/svg">
<circle cx="62" cy="62" r="60" fill="white"/>
<circle cx="62" cy="62" r="60" fill="#E77E23" fill-opacity="0.3"/>
<circle cx="62" cy="62" r="60" stroke="#E77E23" stroke-width="3.5"/>
<path d="M89.3675 29.6361C88.7525 29.257 88.051 29.0409 87.3293 29.0081C86.6076 28.9753 85.8894 29.1269 85.2425 29.4486L79.9925 32.0736L72.7475 28.4474C72.1568 28.1534 71.506 28.0004 70.8463 28.0004C70.1865 28.0004 69.5357 28.1534 68.945 28.4474L61.6925 32.0736L54.4475 28.4474C53.8569 28.1531 53.2061 28 52.5462 28C51.8864 28 51.2356 28.1531 50.645 28.4474L43.4 32.0736L38.15 29.4486C37.5019 29.1255 36.782 28.9732 36.0586 29.0062C35.3351 29.0392 34.6321 29.2565 34.0162 29.6373C33.4002 30.0182 32.8917 30.55 32.5389 31.1824C32.186 31.8149 32.0005 32.5269 32 33.2511V90.8061C32.0002 91.5308 32.1857 92.2434 32.5387 92.8764C32.8917 93.5093 33.4006 94.0414 34.0171 94.4224C34.6336 94.8033 35.3373 95.0204 36.0612 95.053C36.7852 95.0856 37.5055 94.9326 38.1537 94.6086L43.4038 91.9836L50.6488 95.6099C51.2393 95.9041 51.8902 96.0572 52.55 96.0572C53.2098 96.0572 53.8607 95.9041 54.4513 95.6099L61.6925 91.9836L68.9375 95.6099C69.5281 95.9041 70.1789 96.0572 70.8387 96.0572C71.4986 96.0572 72.1494 95.9041 72.74 95.6099L79.985 91.9836L85.235 94.6086C85.8832 94.9326 86.6035 95.0856 87.3275 95.053C88.0515 95.0204 88.7551 94.8033 89.3716 94.4224C89.9881 94.0414 90.497 93.5093 90.8501 92.8764C91.2031 92.2434 91.3885 91.5308 91.3888 90.8061V33.2511C91.3882 32.5262 91.2022 31.8134 90.8484 31.1806C90.4946 30.5479 89.9848 30.0162 89.3675 29.6361ZM86.885 90.3861L81.8863 87.9036C81.2957 87.6094 80.6448 87.4562 79.985 87.4562C79.3252 87.4562 78.6744 87.6094 78.0838 87.9036L70.8387 91.5261L63.5938 87.9036C63.0032 87.6094 62.3523 87.4562 61.6925 87.4562C61.0327 87.4562 60.3818 87.6094 59.7913 87.9036L52.5462 91.5261L45.3012 87.9036C44.7106 87.6097 44.0598 87.4567 43.4 87.4567C42.7402 87.4567 42.0894 87.6097 41.4987 87.9036L36.5 90.4011V33.6561L41.4987 36.1536C42.0894 36.4476 42.7402 36.6005 43.4 36.6005C44.0598 36.6005 44.7106 36.4476 45.3012 36.1536L52.5462 32.5311L59.7913 36.1536C60.3818 36.4478 61.0327 36.601 61.6925 36.601C62.3523 36.601 63.0032 36.4478 63.5938 36.1536L70.8387 32.5311L78.0838 36.1536C78.6744 36.4478 79.3252 36.601 79.985 36.601C80.6448 36.601 81.2957 36.4478 81.8863 36.1536L86.885 33.6561V90.3861Z" fill="#E77E23"/>
<path d="M72.0197 44.5499L61.6922 54.8736L55.3397 48.5286C54.9168 48.1121 54.3465 47.8795 53.7529 47.8816C53.1594 47.8836 52.5907 48.1201 52.1707 48.5396C51.7507 48.9591 51.5135 49.5275 51.5108 50.1211C51.508 50.7146 51.7399 51.2853 52.156 51.7086L60.1022 59.6549C60.5241 60.0762 61.096 60.3129 61.6922 60.3129C62.2885 60.3129 62.8603 60.0762 63.2822 59.6549L75.1922 47.7299C75.4133 47.5239 75.5906 47.2755 75.7135 46.9995C75.8365 46.7235 75.9026 46.4255 75.908 46.1234C75.9133 45.8213 75.8577 45.5212 75.7446 45.2411C75.6314 44.9609 75.463 44.7064 75.2493 44.4928C75.0357 44.2791 74.7812 44.1107 74.501 43.9975C74.2208 43.8843 73.9207 43.8288 73.6186 43.8341C73.3165 43.8394 73.0186 43.9055 72.7426 44.0285C72.4666 44.1515 72.2182 44.3288 72.0122 44.5499H72.0197Z" fill="#E77E23"/>
<path d="M69.6386 63.7498H53.7461C53.4506 63.7498 53.158 63.808 52.8851 63.921C52.6121 64.0341 52.364 64.1998 52.1551 64.4088C51.9462 64.6177 51.7804 64.8657 51.6674 65.1387C51.5543 65.4117 51.4961 65.7043 51.4961 65.9998C51.4961 66.2952 51.5543 66.5878 51.6674 66.8608C51.7804 67.1338 51.9462 67.3818 52.1551 67.5908C52.364 67.7997 52.6121 67.9654 52.8851 68.0785C53.158 68.1916 53.4506 68.2498 53.7461 68.2498H69.6386C70.2353 68.2498 70.8076 68.0127 71.2296 67.5908C71.6515 67.1688 71.8886 66.5965 71.8886 65.9998C71.8886 65.403 71.6515 64.8307 71.2296 64.4088C70.8076 63.9868 70.2353 63.7498 69.6386 63.7498Z" fill="#E77E23"/>
<path d="M69.6386 71.696H53.7461C53.4506 71.696 53.158 71.7542 52.8851 71.8673C52.6121 71.9804 52.364 72.1461 52.1551 72.3551C51.9462 72.564 51.7804 72.812 51.6674 73.085C51.5543 73.358 51.4961 73.6506 51.4961 73.946C51.4961 74.2415 51.5543 74.5341 51.6674 74.8071C51.7804 75.0801 51.9462 75.3281 52.1551 75.537C52.364 75.746 52.6121 75.9117 52.8851 76.0248C53.158 76.1379 53.4506 76.196 53.7461 76.196H69.6386C70.2353 76.196 70.8076 75.959 71.2296 75.537C71.6515 75.1151 71.8886 74.5428 71.8886 73.946C71.8886 73.3493 71.6515 72.777 71.2296 72.3551C70.8076 71.9331 70.2353 71.696 69.6386 71.696Z" fill="#E77E23"/>
</svg>
